<svg xmlns="http://www.w3.org/2000/svg" fill-rule="evenodd" viewBox="0 0 100 100">
    <path d="M71.15 18c-6.899 0-13.236 3.169-17.403 8.699a1.499 1.499 0 0 0 .029 2.091l10.603 10.603-14.94 14.939a1.5 1.5 0 0 0 0 2.122l8.939 8.939-14.939 14.939a1.502 1.502 0 0 0 .007 2.127 321.77 321.77 0 0 1 6.964 7.071 1.5 1.5 0 0 0 1.064.469h.025a1.5 1.5 0 0 0 1.055-.433c.263-.26 26.374-26.064 34.757-34.911C90.979 50.784 93 45.555 93 39.932 93 27.839 83.198 18 71.15 18zm13.984 34.593c-7.372 7.78-28.565 28.782-33.605 33.77a352.726 352.726 0 0 0-4.902-4.975l14.935-14.935a1.5 1.5 0 0 0 0-2.121l-8.939-8.939 14.939-14.939a1.506 1.506 0 0 0-.001-2.122L56.85 27.622C60.434 23.398 65.58 21 71.15 21 81.544 21 90 29.493 90 39.932c0 4.853-1.729 9.349-4.866 12.661z"/>
    <path d="M51 65.393c0-.397-.158-.779-.439-1.061l-8.939-8.939 14.939-14.939a1.5 1.5 0 0 0 .014-2.107c-.176-.18-1.3-1.312-2.618-2.64-1.863-1.876-4.416-4.445-4.657-4.7a383.142 383.142 0 0 1-1.55-1.646C42.284 23.533 37.565 18.5 28.85 18.5 16.802 18.5 7 28.088 7 39.874c0 5.468 1.992 10.534 5.608 14.264 3.259 3.361 8.167 7.867 13.364 12.637 3.88 3.562 7.892 7.244 11.489 10.699.291.279.665.418 1.039.418.384 0 .768-.146 1.061-.439l11-10.999c.281-.282.439-.664.439-1.061zm-12.523 8.901c-3.337-3.177-6.961-6.503-10.477-9.73-5.163-4.739-10.041-9.216-13.238-12.515C11.691 48.882 10 44.559 10 39.874 10 29.743 18.456 21.5 28.85 21.5c7.416 0 11.314 4.158 16.71 9.912.51.543 1.029 1.097 1.562 1.659.246.259 2.189 2.217 4.705 4.75l1.557 1.567-14.945 14.944a1.5 1.5 0 0 0 0 2.122l8.939 8.939-8.901 8.901z"/>
    <path d="M29 26.392c-7.444 0-13.5 6.056-13.5 13.5a1.5 1.5 0 1 0 3 0c0-5.79 4.71-10.5 10.5-10.5a1.5 1.5 0 1 0 0-3z"/>
</svg>
