<svg xmlns="http://www.w3.org/2000/svg" fill-rule="evenodd" viewBox="0 0 100 100">
    <path d="M88.37 45.67h-1.44v-2.78C86.93 21.45 70.36 4 50 4a35.8 35.8 0 0 0-26.17 11.42A39.68 39.68 0 0 0 13 42.88v2.79h-.93c-4.26 0-7.74 4.33-7.74 9.64A11 11 0 0 0 6.49 62a7 7 0 0 0 5.6 3h1.35c2.69 18.68 18 33 36.53 33a35.8 35.8 0 0 0 26.16-11.42A39.36 39.36 0 0 0 86.51 65h1.85c4.26 0 7.74-4.33 7.74-9.64s-3.47-9.69-7.73-9.69ZM50 7c12.11 0 22.74 6.74 28.75 16.84a37.94 37.94 0 0 1-23.36-.74A38.12 38.12 0 0 1 37 9.71 32.3 32.3 0 0 1 50 7ZM12.09 62a4.11 4.11 0 0 1-3.22-1.8 8 8 0 0 1-1.52-4.85c0-3.6 2.17-6.65 4.74-6.65H13v10.44c0 1 0 1.91.11 2.85ZM74 84.52A32.83 32.83 0 0 1 50 95c-18.75 0-34-16.1-34-35.89V42.88a36.7 36.7 0 0 1 10-25.4 34.23 34.23 0 0 1 8.28-6.42 41 41 0 0 0 20.11 14.88 42.78 42.78 0 0 0 14 2.41 38.36 38.36 0 0 0 11.76-1.81 37.29 37.29 0 0 1 3.74 16.35v16.22A36.7 36.7 0 0 1 74 84.52ZM88.36 62h-1.54c.06-.94.11-1.88.11-2.83v-10.5h1.44c2.57 0 4.74 3 4.73 6.64S90.93 62 88.36 62Z"/>
    <path d="M63.4 73.68a1.5 1.5 0 0 0-2 .8 12 12 0 0 1-21.88.47 1.5 1.5 0 1 0-2.71 1.29 15 15 0 0 0 27.35-.59 1.5 1.5 0 0 0-.76-1.97Zm-13.19-5.04h.42c2.72 0 5.35-1.39 7.81-4.14a1.5 1.5 0 0 0-2.23-2c-1.95 2.17-3.9 3.23-5.82 3.14-3-.14-5.09-3-5.13-3a1.5 1.5 0 0 0-2.42 1.77c.11.15 2.95 4.01 7.37 4.23Zm23.43-21.23c-1.95 2.17-3.91 3.23-5.82 3.14-3-.14-5.09-3-5.13-3a1.5 1.5 0 0 0-2.42 1.77c.12.16 3 4 7.38 4.25h.42c2.72 0 5.35-1.39 7.81-4.14a1.5 1.5 0 0 0-2.23-2Zm-33.79 2a1.5 1.5 0 0 0-2.23-2c-1.95 2.17-3.9 3.23-5.82 3.14-3-.14-5.09-3-5.13-3a1.5 1.5 0 0 0-2.42 1.77c.12.16 3 4 7.38 4.25H32c2.76-.02 5.38-1.41 7.85-4.16Z"/>
</svg>
