<svg xmlns="http://www.w3.org/2000/svg" fill-rule="evenodd" viewBox="0 0 100 100">
    <path d="M31.068 38.79c7.18 0 13.021-5.841 13.021-13.021 0-7.178-5.842-13.019-13.021-13.019-7.177 0-13.016 5.84-13.016 13.019 0 7.18 5.839 13.021 13.016 13.021zm0-23.04c5.525 0 10.021 4.494 10.021 10.019 0 5.526-4.496 10.021-10.021 10.021-5.522 0-10.016-4.496-10.016-10.021S25.545 15.75 31.068 15.75zm32.704 35.184a1.5 1.5 0 1 0 .918 2.856 17.305 17.305 0 0 1 5.304-.828c9.54 0 17.302 7.762 17.302 17.304a1.5 1.5 0 1 0 3 0c0-11.195-9.107-20.304-20.302-20.304a20.316 20.316 0 0 0-6.222.972zm6.802-4.345c6.603 0 11.975-5.372 11.975-11.975 0-6.602-5.372-11.972-11.975-11.972-6.6 0-11.969 5.371-11.969 11.972 0 6.603 5.369 11.975 11.969 11.975zm0-20.947c4.948 0 8.975 4.025 8.975 8.972 0 4.949-4.026 8.975-8.975 8.975-4.945 0-8.969-4.026-8.969-8.975 0-4.947 4.023-8.972 8.969-8.972z"/>
    <path d="M90.617 86.124c.026-.102.04-.206.045-.311.001-.033 0-.066-.001-.099a1.45 1.45 0 0 0-.03-.262c-.006-.031-.011-.062-.019-.094a1.45 1.45 0 0 0-.131-.333l-8.557-15.484a1.499 1.499 0 1 0-2.625 1.452l7.326 13.258H64.793c-.754-7.407-7.028-13.207-14.631-13.207-7.602 0-13.875 5.8-14.629 13.207H22.355V64.802a1.5 1.5 0 1 0-3 0v19.449h-7.019V45.827h36.165v3.466c-4.831.682-8.562 4.831-8.562 9.846 0 5.49 4.466 9.956 9.956 9.956 5.491 0 9.958-4.466 9.958-9.956 0-4.942-3.624-9.043-8.353-9.814v-4.998a1.5 1.5 0 0 0-1.5-1.5H10.835a1.5 1.5 0 0 0-1.5 1.5V85.75a1.5 1.5 0 0 0 1.5 1.5h78.332c.127 0 .254-.017.379-.05.054-.014.102-.041.153-.061.064-.025.13-.042.193-.076l.01-.007c.016-.009.03-.022.045-.031.086-.053.165-.113.237-.179.026-.024.048-.05.072-.075.061-.065.115-.134.163-.208.011-.018.028-.031.039-.049.006-.01.008-.022.014-.033.057-.103.105-.21.137-.322.005-.013.006-.024.008-.035zM56.855 59.139c0 3.835-3.121 6.956-6.958 6.956-3.836 0-6.956-3.12-6.956-6.956s3.12-6.956 6.956-6.956c3.837 0 6.958 3.12 6.958 6.956zm-6.692 14.904c5.946 0 10.86 4.459 11.6 10.207H38.565c.74-5.748 5.653-10.207 11.598-10.207z"/>
</svg>
